<?xml version="1.0" encoding="UTF-8" standalone="no"?>
<svg
   xmlns:dc="http://purl.org/dc/elements/1.1/"
   xmlns:cc="http://creativecommons.org/ns#"
   xmlns:rdf="http://www.w3.org/1999/02/22-rdf-syntax-ns#"
   xmlns:svg="http://www.w3.org/2000/svg"
   xmlns="http://www.w3.org/2000/svg"
   xmlns:xlink="http://www.w3.org/1999/xlink"
   xmlns:sodipodi="http://sodipodi.sourceforge.net/DTD/sodipodi-0.dtd"
   xmlns:inkscape="http://www.inkscape.org/namespaces/inkscape"
   version="1.1"
   id="FusionDB_Logo"
   x="0px"
   y="0px"
   viewBox="0 0 135.1 82.7"
   style="enable-background:new 0 0 135.1 82.7;"
   xml:space="preserve"
   sodipodi:docname="FusionDB Logo - light.svg"
   inkscape:version="1.0.1 (3bc2e813f5, 2020-09-07)"><metadata
   id="metadata1067"><rdf:RDF><cc:Work
       rdf:about=""><dc:format>image/svg+xml</dc:format><dc:type
         rdf:resource="http://purl.org/dc/dcmitype/StillImage" /><dc:title></dc:title></cc:Work></rdf:RDF></metadata><defs
   id="defs1065" /><sodipodi:namedview
   pagecolor="#ffffff"
   bordercolor="#666666"
   borderopacity="1"
   objecttolerance="10"
   gridtolerance="10"
   guidetolerance="10"
   inkscape:pageopacity="0"
   inkscape:pageshadow="2"
   inkscape:window-width="1617"
   inkscape:window-height="988"
   id="namedview1063"
   showgrid="false"
   inkscape:zoom="2.4537379"
   inkscape:cx="62.86739"
   inkscape:cy="2.6945479"
   inkscape:window-x="63"
   inkscape:window-y="191"
   inkscape:window-maximized="1"
   inkscape:current-layer="FusionDB_Logo"
   inkscape:document-rotation="0" />
<style
   type="text/css"
   id="style2">
	.st0{clip-path:url(#SVGID_2_);fill-rule:evenodd;clip-rule:evenodd;fill:#893C8F;}
	.st1{clip-path:url(#SVGID_2_);fill-rule:evenodd;clip-rule:evenodd;fill:#8A3C8F;}
	.st2{clip-path:url(#SVGID_2_);fill-rule:evenodd;clip-rule:evenodd;fill:#8A3B8F;}
	.st3{clip-path:url(#SVGID_2_);fill-rule:evenodd;clip-rule:evenodd;fill:#8C3B8E;}
	.st4{clip-path:url(#SVGID_2_);fill-rule:evenodd;clip-rule:evenodd;fill:#8D3A8E;}
	.st5{clip-path:url(#SVGID_2_);fill-rule:evenodd;clip-rule:evenodd;fill:#8E3A8E;}
	.st6{clip-path:url(#SVGID_2_);fill-rule:evenodd;clip-rule:evenodd;fill:#8E398D;}
	.st7{clip-path:url(#SVGID_2_);fill-rule:evenodd;clip-rule:evenodd;fill:#8F398D;}
	.st8{clip-path:url(#SVGID_2_);fill-rule:evenodd;clip-rule:evenodd;fill:#90388D;}
	.st9{clip-path:url(#SVGID_2_);fill-rule:evenodd;clip-rule:evenodd;fill:#91388D;}
	.st10{clip-path:url(#SVGID_2_);fill-rule:evenodd;clip-rule:evenodd;fill:#92378C;}
	.st11{clip-path:url(#SVGID_2_);fill-rule:evenodd;clip-rule:evenodd;fill:#93378C;}
	.st12{clip-path:url(#SVGID_2_);fill-rule:evenodd;clip-rule:evenodd;fill:#94368C;}
	.st13{clip-path:url(#SVGID_2_);fill-rule:evenodd;clip-rule:evenodd;fill:#94368B;}
	.st14{clip-path:url(#SVGID_2_);fill-rule:evenodd;clip-rule:evenodd;fill:#95368C;}
	.st15{clip-path:url(#SVGID_2_);fill-rule:evenodd;clip-rule:evenodd;fill:#95358B;}
	.st16{clip-path:url(#SVGID_2_);fill-rule:evenodd;clip-rule:evenodd;fill:#96358B;}
	.st17{clip-path:url(#SVGID_2_);fill-rule:evenodd;clip-rule:evenodd;fill:#97348B;}
	.st18{clip-path:url(#SVGID_2_);fill-rule:evenodd;clip-rule:evenodd;fill:#99338A;}
	.st19{clip-path:url(#SVGID_2_);fill-rule:evenodd;clip-rule:evenodd;fill:#9A338A;}
	.st20{clip-path:url(#SVGID_2_);fill-rule:evenodd;clip-rule:evenodd;fill:#9A328A;}
	.st21{clip-path:url(#SVGID_2_);fill-rule:evenodd;clip-rule:evenodd;fill:#9B3189;}
	.st22{clip-path:url(#SVGID_2_);fill-rule:evenodd;clip-rule:evenodd;fill:#9C3189;}
	.st23{clip-path:url(#SVGID_2_);fill-rule:evenodd;clip-rule:evenodd;fill:#9D3089;}
	.st24{clip-path:url(#SVGID_2_);fill-rule:evenodd;clip-rule:evenodd;fill:#9D2F89;}
	.st25{clip-path:url(#SVGID_2_);fill-rule:evenodd;clip-rule:evenodd;fill:#9F2F88;}
	.st26{clip-path:url(#SVGID_2_);fill-rule:evenodd;clip-rule:evenodd;fill:#A02E88;}
	.st27{clip-path:url(#SVGID_2_);fill-rule:evenodd;clip-rule:evenodd;fill:#A12D88;}
	.st28{clip-path:url(#SVGID_2_);fill-rule:evenodd;clip-rule:evenodd;fill:#A22C87;}
	.st29{clip-path:url(#SVGID_2_);fill-rule:evenodd;clip-rule:evenodd;fill:#A32C87;}
	.st30{clip-path:url(#SVGID_2_);fill-rule:evenodd;clip-rule:evenodd;fill:#A42B87;}
	.st31{clip-path:url(#SVGID_2_);fill-rule:evenodd;clip-rule:evenodd;fill:#A42A87;}
	.st32{clip-path:url(#SVGID_2_);fill-rule:evenodd;clip-rule:evenodd;fill:#A62A86;}
	.st33{clip-path:url(#SVGID_2_);fill-rule:evenodd;clip-rule:evenodd;fill:#A62986;}
	.st34{clip-path:url(#SVGID_2_);fill-rule:evenodd;clip-rule:evenodd;fill:#A72986;}
	.st35{clip-path:url(#SVGID_2_);fill-rule:evenodd;clip-rule:evenodd;fill:#A72886;}
	.st36{clip-path:url(#SVGID_2_);fill-rule:evenodd;clip-rule:evenodd;fill:#A82785;}
	.st37{clip-path:url(#SVGID_2_);fill-rule:evenodd;clip-rule:evenodd;fill:#A92785;}
	.st38{clip-path:url(#SVGID_2_);fill-rule:evenodd;clip-rule:evenodd;fill:#AA2585;}
	.st39{clip-path:url(#SVGID_2_);fill-rule:evenodd;clip-rule:evenodd;fill:#AB2485;}
	.st40{clip-path:url(#SVGID_2_);fill-rule:evenodd;clip-rule:evenodd;fill:#AB2384;}
	.st41{clip-path:url(#SVGID_2_);fill-rule:evenodd;clip-rule:evenodd;fill:#AD2384;}
	.st42{clip-path:url(#SVGID_2_);fill-rule:evenodd;clip-rule:evenodd;fill:#AD2284;}
	.st43{clip-path:url(#SVGID_2_);fill-rule:evenodd;clip-rule:evenodd;fill:#AE2284;}
	.st44{clip-path:url(#SVGID_2_);fill-rule:evenodd;clip-rule:evenodd;fill:#AE2184;}
	.st45{clip-path:url(#SVGID_2_);fill-rule:evenodd;clip-rule:evenodd;fill:#B02083;}
	.st46{clip-path:url(#SVGID_2_);fill-rule:evenodd;clip-rule:evenodd;fill:#B01E83;}
	.st47{clip-path:url(#SVGID_2_);fill-rule:evenodd;clip-rule:evenodd;fill:#B21C82;}
	.st48{clip-path:url(#SVGID_2_);fill-rule:evenodd;clip-rule:evenodd;fill:#B31C82;}
	.st49{clip-path:url(#SVGID_2_);fill-rule:evenodd;clip-rule:evenodd;fill:#B31A82;}
	.st50{clip-path:url(#SVGID_2_);fill-rule:evenodd;clip-rule:evenodd;fill:#B51982;}
	.st51{clip-path:url(#SVGID_2_);fill-rule:evenodd;clip-rule:evenodd;fill:#B61781;}
	.st52{clip-path:url(#SVGID_2_);fill-rule:evenodd;clip-rule:evenodd;fill:#B71481;}
	.st53{clip-path:url(#SVGID_2_);fill-rule:evenodd;clip-rule:evenodd;fill:#B71280;}
	.st54{clip-path:url(#SVGID_2_);fill-rule:evenodd;clip-rule:evenodd;fill:#B90E80;}
	.st55{clip-path:url(#SVGID_2_);fill-rule:evenodd;clip-rule:evenodd;fill:#BA0C80;}
	.st56{clip-path:url(#SVGID_2_);fill-rule:evenodd;clip-rule:evenodd;fill:#BB0B80;}
	.st57{clip-path:url(#SVGID_2_);fill-rule:evenodd;clip-rule:evenodd;fill:#BB0B7F;}
	.st58{clip-path:url(#SVGID_2_);fill-rule:evenodd;clip-rule:evenodd;fill:#BC0B7F;}
	.st59{clip-path:url(#SVGID_2_);fill-rule:evenodd;clip-rule:evenodd;fill:#BC0C7E;}
	.st60{clip-path:url(#SVGID_2_);fill-rule:evenodd;clip-rule:evenodd;fill:#BC0B7E;}
	.st61{clip-path:url(#SVGID_2_);fill-rule:evenodd;clip-rule:evenodd;fill:#BD0B7D;}
	.st62{clip-path:url(#SVGID_2_);fill-rule:evenodd;clip-rule:evenodd;fill:#BE0A7D;}
	.st63{clip-path:url(#SVGID_2_);fill-rule:evenodd;clip-rule:evenodd;fill:#BE0B7C;}
	.st64{clip-path:url(#SVGID_2_);fill-rule:evenodd;clip-rule:evenodd;fill:#BE0B7B;}
	.st65{clip-path:url(#SVGID_2_);fill-rule:evenodd;clip-rule:evenodd;fill:#BF0B7B;}
	.st66{clip-path:url(#SVGID_2_);fill-rule:evenodd;clip-rule:evenodd;fill:#C00B7A;}
	.st67{clip-path:url(#SVGID_2_);fill-rule:evenodd;clip-rule:evenodd;fill:#C00C79;}
	.st68{clip-path:url(#SVGID_2_);fill-rule:evenodd;clip-rule:evenodd;fill:#C10C78;}
	.st69{clip-path:url(#SVGID_2_);fill-rule:evenodd;clip-rule:evenodd;fill:#C20C77;}
	.st70{clip-path:url(#SVGID_2_);fill-rule:evenodd;clip-rule:evenodd;fill:#C10C76;}
	.st71{clip-path:url(#SVGID_2_);fill-rule:evenodd;clip-rule:evenodd;fill:#C20C75;}
	.st72{clip-path:url(#SVGID_2_);fill-rule:evenodd;clip-rule:evenodd;fill:#C20D75;}
	.st73{clip-path:url(#SVGID_2_);fill-rule:evenodd;clip-rule:evenodd;fill:#C30C75;}
	.st74{clip-path:url(#SVGID_2_);fill-rule:evenodd;clip-rule:evenodd;fill:#C30C74;}
	.st75{clip-path:url(#SVGID_2_);fill-rule:evenodd;clip-rule:evenodd;fill:#C30D73;}
	.st76{clip-path:url(#SVGID_2_);fill-rule:evenodd;clip-rule:evenodd;fill:#C40C73;}
	.st77{clip-path:url(#SVGID_2_);fill-rule:evenodd;clip-rule:evenodd;fill:#C40C72;}
	.st78{clip-path:url(#SVGID_2_);fill-rule:evenodd;clip-rule:evenodd;fill:#C50C71;}
	.st79{clip-path:url(#SVGID_2_);fill-rule:evenodd;clip-rule:evenodd;fill:#C50D70;}
	.st80{clip-path:url(#SVGID_2_);fill-rule:evenodd;clip-rule:evenodd;fill:#C50C70;}
	.st81{clip-path:url(#SVGID_2_);fill-rule:evenodd;clip-rule:evenodd;fill:#C50D6F;}
	.st82{clip-path:url(#SVGID_2_);fill-rule:evenodd;clip-rule:evenodd;fill:#C60C6F;}
	.st83{clip-path:url(#SVGID_2_);fill-rule:evenodd;clip-rule:evenodd;fill:#C60D6E;}
	.st84{clip-path:url(#SVGID_2_);fill-rule:evenodd;clip-rule:evenodd;fill:#C70D6D;}
	.st85{clip-path:url(#SVGID_2_);fill-rule:evenodd;clip-rule:evenodd;fill:#C70D6C;}
	.st86{clip-path:url(#SVGID_2_);fill-rule:evenodd;clip-rule:evenodd;fill:#C80D6B;}
	.st87{clip-path:url(#SVGID_2_);fill-rule:evenodd;clip-rule:evenodd;fill:#C90D6A;}
	.st88{clip-path:url(#SVGID_2_);fill-rule:evenodd;clip-rule:evenodd;fill:#C90D69;}
	.st89{clip-path:url(#SVGID_2_);fill-rule:evenodd;clip-rule:evenodd;fill:#CA0D68;}
	.st90{clip-path:url(#SVGID_2_);fill-rule:evenodd;clip-rule:evenodd;fill:#CA0D67;}
	.st91{clip-path:url(#SVGID_2_);fill-rule:evenodd;clip-rule:evenodd;fill:#CA0D66;}
	.st92{clip-path:url(#SVGID_2_);fill-rule:evenodd;clip-rule:evenodd;fill:#CA0E65;}
	.st93{clip-path:url(#SVGID_2_);fill-rule:evenodd;clip-rule:evenodd;fill:#CB0D64;}
	.st94{clip-path:url(#SVGID_2_);fill-rule:evenodd;clip-rule:evenodd;fill:#CC0D63;}
	.st95{clip-path:url(#SVGID_2_);fill-rule:evenodd;clip-rule:evenodd;fill:#CC0E62;}
	.st96{clip-path:url(#SVGID_2_);fill-rule:evenodd;clip-rule:evenodd;fill:#CD0E61;}
	.st97{clip-path:url(#SVGID_2_);fill-rule:evenodd;clip-rule:evenodd;fill:#CD0E60;}
	.st98{clip-path:url(#SVGID_2_);fill-rule:evenodd;clip-rule:evenodd;fill:#CE0D60;}
	.st99{clip-path:url(#SVGID_2_);fill-rule:evenodd;clip-rule:evenodd;fill:#CE0D5F;}
	.st100{clip-path:url(#SVGID_2_);fill-rule:evenodd;clip-rule:evenodd;fill:#CF0D5E;}
	.st101{clip-path:url(#SVGID_2_);fill-rule:evenodd;clip-rule:evenodd;fill:#CF0D5D;}
	.st102{clip-path:url(#SVGID_2_);fill-rule:evenodd;clip-rule:evenodd;fill:#D00D5D;}
	.st103{clip-path:url(#SVGID_2_);fill-rule:evenodd;clip-rule:evenodd;fill:#D00D5B;}
	.st104{clip-path:url(#SVGID_2_);fill-rule:evenodd;clip-rule:evenodd;fill:#D10C5B;}
	.st105{clip-path:url(#SVGID_2_);fill-rule:evenodd;clip-rule:evenodd;fill:#D10C5A;}
	.st106{clip-path:url(#SVGID_2_);fill-rule:evenodd;clip-rule:evenodd;fill:#D10D59;}
	.st107{clip-path:url(#SVGID_2_);fill-rule:evenodd;clip-rule:evenodd;fill:#D20C59;}
	.st108{clip-path:url(#SVGID_2_);fill-rule:evenodd;clip-rule:evenodd;fill:#D10C58;}
	.st109{clip-path:url(#SVGID_2_);fill-rule:evenodd;clip-rule:evenodd;fill:#D20C57;}
	.st110{clip-path:url(#SVGID_2_);fill-rule:evenodd;clip-rule:evenodd;fill:#D20C56;}
	.st111{clip-path:url(#SVGID_2_);fill-rule:evenodd;clip-rule:evenodd;fill:#D30C55;}
	.st112{clip-path:url(#SVGID_2_);fill-rule:evenodd;clip-rule:evenodd;fill:#D40B54;}
	.st113{clip-path:url(#SVGID_2_);fill-rule:evenodd;clip-rule:evenodd;fill:#D40C54;}
	.st114{clip-path:url(#SVGID_2_);fill-rule:evenodd;clip-rule:evenodd;fill:#D40B52;}
	.st115{clip-path:url(#SVGID_2_);fill-rule:evenodd;clip-rule:evenodd;fill:#D40C51;}
	.st116{clip-path:url(#SVGID_2_);fill-rule:evenodd;clip-rule:evenodd;fill:#D50B51;}
	.st117{clip-path:url(#SVGID_2_);fill-rule:evenodd;clip-rule:evenodd;fill:#D50B50;}
	.st118{clip-path:url(#SVGID_2_);fill-rule:evenodd;clip-rule:evenodd;fill:#D50C4F;}
	.st119{clip-path:url(#SVGID_2_);fill-rule:evenodd;clip-rule:evenodd;fill:#D60B4E;}
	.st120{clip-path:url(#SVGID_2_);fill-rule:evenodd;clip-rule:evenodd;fill:#D70B4C;}
	.st121{clip-path:url(#SVGID_2_);fill-rule:evenodd;clip-rule:evenodd;fill:#D70B4B;}
	.st122{clip-path:url(#SVGID_2_);fill-rule:evenodd;clip-rule:evenodd;fill:#D70B49;}
	.st123{clip-path:url(#SVGID_2_);fill-rule:evenodd;clip-rule:evenodd;fill:#D80A49;}
	.st124{clip-path:url(#SVGID_2_);fill-rule:evenodd;clip-rule:evenodd;fill:#D80A48;}
	.st125{clip-path:url(#SVGID_2_);fill-rule:evenodd;clip-rule:evenodd;fill:#D90A47;}
	.st126{clip-path:url(#SVGID_2_);fill-rule:evenodd;clip-rule:evenodd;fill:#D90A46;}
	.st127{clip-path:url(#SVGID_2_);fill-rule:evenodd;clip-rule:evenodd;fill:#DA0A45;}
	.st128{clip-path:url(#SVGID_2_);fill-rule:evenodd;clip-rule:evenodd;fill:#DA0944;}
	.st129{clip-path:url(#SVGID_2_);fill-rule:evenodd;clip-rule:evenodd;fill:#DA0943;}
	.st130{clip-path:url(#SVGID_2_);fill-rule:evenodd;clip-rule:evenodd;fill:#DA0942;}
	.st131{clip-path:url(#SVGID_2_);fill-rule:evenodd;clip-rule:evenodd;fill:#DB0842;}
	.st132{clip-path:url(#SVGID_2_);fill-rule:evenodd;clip-rule:evenodd;fill:#DB0940;}
	.st133{clip-path:url(#SVGID_2_);fill-rule:evenodd;clip-rule:evenodd;fill:#DC083F;}
	.st134{clip-path:url(#SVGID_2_);fill-rule:evenodd;clip-rule:evenodd;fill:#DC083E;}
	.st135{clip-path:url(#SVGID_2_);fill-rule:evenodd;clip-rule:evenodd;fill:#DD083D;}
	.st136{clip-path:url(#SVGID_2_);fill-rule:evenodd;clip-rule:evenodd;fill:#DE073C;}
	.st137{clip-path:url(#SVGID_2_);fill-rule:evenodd;clip-rule:evenodd;fill:#DE073B;}
	.st138{clip-path:url(#SVGID_2_);fill-rule:evenodd;clip-rule:evenodd;fill:#DE073A;}
	.st139{clip-path:url(#SVGID_2_);fill-rule:evenodd;clip-rule:evenodd;fill:#DE0739;}
	.st140{clip-path:url(#SVGID_2_);fill-rule:evenodd;clip-rule:evenodd;fill:#DF0638;}
	.st141{clip-path:url(#SVGID_2_);fill-rule:evenodd;clip-rule:evenodd;fill:#DF0737;}
	.st142{clip-path:url(#SVGID_2_);fill-rule:evenodd;clip-rule:evenodd;fill:#DF0636;}
	.st143{clip-path:url(#SVGID_2_);fill-rule:evenodd;clip-rule:evenodd;fill:#DF0735;}
	.st144{clip-path:url(#SVGID_2_);fill-rule:evenodd;clip-rule:evenodd;fill:#E00634;}
	.st145{clip-path:url(#SVGID_2_);fill-rule:evenodd;clip-rule:evenodd;fill:#E00633;}
	.st146{clip-path:url(#SVGID_2_);fill-rule:evenodd;clip-rule:evenodd;fill:#E00632;}
	.st147{clip-path:url(#SVGID_2_);fill-rule:evenodd;clip-rule:evenodd;fill:#E10532;}
	.st148{clip-path:url(#SVGID_2_);fill-rule:evenodd;clip-rule:evenodd;fill:#E10630;}
	.st149{clip-path:url(#SVGID_2_);fill-rule:evenodd;clip-rule:evenodd;fill:#E2052F;}
	.st150{clip-path:url(#SVGID_2_);fill-rule:evenodd;clip-rule:evenodd;fill:#E2062E;}
	.st151{clip-path:url(#SVGID_2_);fill-rule:evenodd;clip-rule:evenodd;fill:#E2052C;}
	.st152{clip-path:url(#SVGID_2_);fill-rule:evenodd;clip-rule:evenodd;fill:#E3042C;}
	.st153{clip-path:url(#SVGID_2_);fill-rule:evenodd;clip-rule:evenodd;fill:#E3052B;}
	.st154{clip-path:url(#SVGID_2_);fill-rule:evenodd;clip-rule:evenodd;fill:#E4042A;}
	.st155{clip-path:url(#SVGID_2_);fill-rule:evenodd;clip-rule:evenodd;fill:#E40429;}
	.st156{clip-path:url(#SVGID_2_);fill-rule:evenodd;clip-rule:evenodd;fill:#E40428;}
	.st157{clip-path:url(#SVGID_2_);fill-rule:evenodd;clip-rule:evenodd;fill:#E40427;}
	.st158{clip-path:url(#SVGID_2_);fill-rule:evenodd;clip-rule:evenodd;fill:#E40426;}
	.st159{clip-path:url(#SVGID_2_);fill-rule:evenodd;clip-rule:evenodd;fill:#E40425;}
	.st160{clip-path:url(#SVGID_2_);fill-rule:evenodd;clip-rule:evenodd;fill:#E40424;}
	.st161{clip-path:url(#SVGID_2_);fill-rule:evenodd;clip-rule:evenodd;fill:#E40523;}
	.st162{clip-path:url(#SVGID_2_);fill-rule:evenodd;clip-rule:evenodd;fill:#E40521;}
	.st163{clip-path:url(#SVGID_2_);fill-rule:evenodd;clip-rule:evenodd;fill:#E40520;}
	.st164{clip-path:url(#SVGID_2_);fill-rule:evenodd;clip-rule:evenodd;fill:#E4051F;}
	.st165{clip-path:url(#SVGID_2_);fill-rule:evenodd;clip-rule:evenodd;fill:#E3051E;}
	.st166{clip-path:url(#SVGID_2_);fill-rule:evenodd;clip-rule:evenodd;fill:#E4051E;}
	.st167{clip-path:url(#SVGID_2_);fill-rule:evenodd;clip-rule:evenodd;fill:#E3051D;}
	.st168{clip-path:url(#SVGID_2_);fill-rule:evenodd;clip-rule:evenodd;fill:#E3051C;}
	.st169{clip-path:url(#SVGID_2_);fill-rule:evenodd;clip-rule:evenodd;fill:#E3051B;}
	.st170{clip-path:url(#SVGID_2_);fill-rule:evenodd;clip-rule:evenodd;fill:#E3051A;}
	.st171{clip-path:url(#SVGID_2_);fill-rule:evenodd;clip-rule:evenodd;fill:#E30519;}
	.st172{clip-path:url(#SVGID_2_);fill-rule:evenodd;clip-rule:evenodd;fill:#E30518;}
	.st173{clip-path:url(#SVGID_2_);fill-rule:evenodd;clip-rule:evenodd;fill:#E30517;}
	.st174{clip-path:url(#SVGID_2_);fill-rule:evenodd;clip-rule:evenodd;fill:#E30618;}
	.st175{clip-path:url(#SVGID_2_);fill-rule:evenodd;clip-rule:evenodd;fill:#E30717;}
	.st176{clip-path:url(#SVGID_4_);fill-rule:evenodd;clip-rule:evenodd;fill:#893C8F;}
	.st177{clip-path:url(#SVGID_4_);fill-rule:evenodd;clip-rule:evenodd;fill:#8A3C8F;}
	.st178{clip-path:url(#SVGID_4_);fill-rule:evenodd;clip-rule:evenodd;fill:#8A3B8F;}
	.st179{clip-path:url(#SVGID_4_);fill-rule:evenodd;clip-rule:evenodd;fill:#8C3B8E;}
	.st180{clip-path:url(#SVGID_4_);fill-rule:evenodd;clip-rule:evenodd;fill:#8D3A8E;}
	.st181{clip-path:url(#SVGID_4_);fill-rule:evenodd;clip-rule:evenodd;fill:#8E3A8E;}
	.st182{clip-path:url(#SVGID_4_);fill-rule:evenodd;clip-rule:evenodd;fill:#8E398D;}
	.st183{clip-path:url(#SVGID_4_);fill-rule:evenodd;clip-rule:evenodd;fill:#8F398D;}
	.st184{clip-path:url(#SVGID_4_);fill-rule:evenodd;clip-rule:evenodd;fill:#90388D;}
	.st185{clip-path:url(#SVGID_4_);fill-rule:evenodd;clip-rule:evenodd;fill:#91388D;}
	.st186{clip-path:url(#SVGID_4_);fill-rule:evenodd;clip-rule:evenodd;fill:#92378C;}
	.st187{clip-path:url(#SVGID_4_);fill-rule:evenodd;clip-rule:evenodd;fill:#93378C;}
	.st188{clip-path:url(#SVGID_4_);fill-rule:evenodd;clip-rule:evenodd;fill:#94368C;}
	.st189{clip-path:url(#SVGID_4_);fill-rule:evenodd;clip-rule:evenodd;fill:#94368B;}
	.st190{clip-path:url(#SVGID_4_);fill-rule:evenodd;clip-rule:evenodd;fill:#95368C;}
	.st191{clip-path:url(#SVGID_4_);fill-rule:evenodd;clip-rule:evenodd;fill:#95358B;}
	.st192{clip-path:url(#SVGID_4_);fill-rule:evenodd;clip-rule:evenodd;fill:#96358B;}
	.st193{clip-path:url(#SVGID_4_);fill-rule:evenodd;clip-rule:evenodd;fill:#97348B;}
	.st194{clip-path:url(#SVGID_4_);fill-rule:evenodd;clip-rule:evenodd;fill:#99338A;}
	.st195{clip-path:url(#SVGID_4_);fill-rule:evenodd;clip-rule:evenodd;fill:#9A338A;}
	.st196{clip-path:url(#SVGID_4_);fill-rule:evenodd;clip-rule:evenodd;fill:#9A328A;}
	.st197{clip-path:url(#SVGID_4_);fill-rule:evenodd;clip-rule:evenodd;fill:#9B3189;}
	.st198{clip-path:url(#SVGID_4_);fill-rule:evenodd;clip-rule:evenodd;fill:#9C3189;}
	.st199{clip-path:url(#SVGID_4_);fill-rule:evenodd;clip-rule:evenodd;fill:#9D3089;}
	.st200{clip-path:url(#SVGID_4_);fill-rule:evenodd;clip-rule:evenodd;fill:#9D2F89;}
	.st201{clip-path:url(#SVGID_4_);fill-rule:evenodd;clip-rule:evenodd;fill:#9F2F88;}
	.st202{clip-path:url(#SVGID_4_);fill-rule:evenodd;clip-rule:evenodd;fill:#A02E88;}
	.st203{clip-path:url(#SVGID_4_);fill-rule:evenodd;clip-rule:evenodd;fill:#A12D88;}
	.st204{clip-path:url(#SVGID_4_);fill-rule:evenodd;clip-rule:evenodd;fill:#A22C87;}
	.st205{clip-path:url(#SVGID_4_);fill-rule:evenodd;clip-rule:evenodd;fill:#A32C87;}
	.st206{clip-path:url(#SVGID_4_);fill-rule:evenodd;clip-rule:evenodd;fill:#A42B87;}
	.st207{clip-path:url(#SVGID_4_);fill-rule:evenodd;clip-rule:evenodd;fill:#A42A87;}
	.st208{clip-path:url(#SVGID_4_);fill-rule:evenodd;clip-rule:evenodd;fill:#A62A86;}
	.st209{clip-path:url(#SVGID_4_);fill-rule:evenodd;clip-rule:evenodd;fill:#A62986;}
	.st210{clip-path:url(#SVGID_4_);fill-rule:evenodd;clip-rule:evenodd;fill:#A72986;}
	.st211{clip-path:url(#SVGID_4_);fill-rule:evenodd;clip-rule:evenodd;fill:#A72886;}
	.st212{clip-path:url(#SVGID_4_);fill-rule:evenodd;clip-rule:evenodd;fill:#A82785;}
	.st213{clip-path:url(#SVGID_4_);fill-rule:evenodd;clip-rule:evenodd;fill:#A92785;}
	.st214{clip-path:url(#SVGID_4_);fill-rule:evenodd;clip-rule:evenodd;fill:#AA2585;}
	.st215{clip-path:url(#SVGID_4_);fill-rule:evenodd;clip-rule:evenodd;fill:#AB2485;}
	.st216{clip-path:url(#SVGID_4_);fill-rule:evenodd;clip-rule:evenodd;fill:#AB2384;}
	.st217{clip-path:url(#SVGID_4_);fill-rule:evenodd;clip-rule:evenodd;fill:#AD2384;}
	.st218{clip-path:url(#SVGID_4_);fill-rule:evenodd;clip-rule:evenodd;fill:#AD2284;}
	.st219{clip-path:url(#SVGID_4_);fill-rule:evenodd;clip-rule:evenodd;fill:#AE2284;}
	.st220{clip-path:url(#SVGID_4_);fill-rule:evenodd;clip-rule:evenodd;fill:#AE2184;}
	.st221{clip-path:url(#SVGID_4_);fill-rule:evenodd;clip-rule:evenodd;fill:#B02083;}
	.st222{clip-path:url(#SVGID_4_);fill-rule:evenodd;clip-rule:evenodd;fill:#B01E83;}
	.st223{clip-path:url(#SVGID_4_);fill-rule:evenodd;clip-rule:evenodd;fill:#B21C82;}
	.st224{clip-path:url(#SVGID_4_);fill-rule:evenodd;clip-rule:evenodd;fill:#B31C82;}
	.st225{clip-path:url(#SVGID_4_);fill-rule:evenodd;clip-rule:evenodd;fill:#B31A82;}
	.st226{clip-path:url(#SVGID_4_);fill-rule:evenodd;clip-rule:evenodd;fill:#B51982;}
	.st227{clip-path:url(#SVGID_4_);fill-rule:evenodd;clip-rule:evenodd;fill:#B61781;}
	.st228{clip-path:url(#SVGID_4_);fill-rule:evenodd;clip-rule:evenodd;fill:#B71481;}
	.st229{clip-path:url(#SVGID_4_);fill-rule:evenodd;clip-rule:evenodd;fill:#B71280;}
	.st230{clip-path:url(#SVGID_4_);fill-rule:evenodd;clip-rule:evenodd;fill:#B90E80;}
	.st231{clip-path:url(#SVGID_4_);fill-rule:evenodd;clip-rule:evenodd;fill:#BA0C80;}
	.st232{clip-path:url(#SVGID_4_);fill-rule:evenodd;clip-rule:evenodd;fill:#BB0B80;}
	.st233{clip-path:url(#SVGID_4_);fill-rule:evenodd;clip-rule:evenodd;fill:#BB0B7F;}
	.st234{clip-path:url(#SVGID_4_);fill-rule:evenodd;clip-rule:evenodd;fill:#BC0B7F;}
	.st235{clip-path:url(#SVGID_4_);fill-rule:evenodd;clip-rule:evenodd;fill:#BC0C7E;}
	.st236{clip-path:url(#SVGID_4_);fill-rule:evenodd;clip-rule:evenodd;fill:#BC0B7E;}
	.st237{clip-path:url(#SVGID_4_);fill-rule:evenodd;clip-rule:evenodd;fill:#BD0B7D;}
	.st238{clip-path:url(#SVGID_4_);fill-rule:evenodd;clip-rule:evenodd;fill:#BE0A7D;}
	.st239{clip-path:url(#SVGID_4_);fill-rule:evenodd;clip-rule:evenodd;fill:#BE0B7C;}
	.st240{clip-path:url(#SVGID_4_);fill-rule:evenodd;clip-rule:evenodd;fill:#BE0B7B;}
	.st241{clip-path:url(#SVGID_4_);fill-rule:evenodd;clip-rule:evenodd;fill:#BF0B7B;}
	.st242{clip-path:url(#SVGID_4_);fill-rule:evenodd;clip-rule:evenodd;fill:#C00B7A;}
	.st243{clip-path:url(#SVGID_4_);fill-rule:evenodd;clip-rule:evenodd;fill:#C00C79;}
	.st244{clip-path:url(#SVGID_4_);fill-rule:evenodd;clip-rule:evenodd;fill:#C10C78;}
	.st245{clip-path:url(#SVGID_4_);fill-rule:evenodd;clip-rule:evenodd;fill:#C20C77;}
	.st246{clip-path:url(#SVGID_4_);fill-rule:evenodd;clip-rule:evenodd;fill:#C10C76;}
	.st247{clip-path:url(#SVGID_4_);fill-rule:evenodd;clip-rule:evenodd;fill:#C20C75;}
	.st248{clip-path:url(#SVGID_4_);fill-rule:evenodd;clip-rule:evenodd;fill:#C20D75;}
	.st249{clip-path:url(#SVGID_4_);fill-rule:evenodd;clip-rule:evenodd;fill:#C30C75;}
	.st250{clip-path:url(#SVGID_4_);fill-rule:evenodd;clip-rule:evenodd;fill:#C30C74;}
	.st251{clip-path:url(#SVGID_4_);fill-rule:evenodd;clip-rule:evenodd;fill:#C30D73;}
	.st252{clip-path:url(#SVGID_4_);fill-rule:evenodd;clip-rule:evenodd;fill:#C40C73;}
	.st253{clip-path:url(#SVGID_4_);fill-rule:evenodd;clip-rule:evenodd;fill:#C40C72;}
	.st254{clip-path:url(#SVGID_4_);fill-rule:evenodd;clip-rule:evenodd;fill:#C50C71;}
	.st255{clip-path:url(#SVGID_4_);fill-rule:evenodd;clip-rule:evenodd;fill:#C50D70;}
	.st256{clip-path:url(#SVGID_4_);fill-rule:evenodd;clip-rule:evenodd;fill:#C50C70;}
	.st257{clip-path:url(#SVGID_4_);fill-rule:evenodd;clip-rule:evenodd;fill:#C50D6F;}
	.st258{clip-path:url(#SVGID_4_);fill-rule:evenodd;clip-rule:evenodd;fill:#C60C6F;}
	.st259{clip-path:url(#SVGID_4_);fill-rule:evenodd;clip-rule:evenodd;fill:#C60D6E;}
	.st260{clip-path:url(#SVGID_4_);fill-rule:evenodd;clip-rule:evenodd;fill:#C70D6D;}
	.st261{clip-path:url(#SVGID_4_);fill-rule:evenodd;clip-rule:evenodd;fill:#C70D6C;}
	.st262{clip-path:url(#SVGID_4_);fill-rule:evenodd;clip-rule:evenodd;fill:#C80D6B;}
	.st263{clip-path:url(#SVGID_4_);fill-rule:evenodd;clip-rule:evenodd;fill:#C90D6A;}
	.st264{clip-path:url(#SVGID_4_);fill-rule:evenodd;clip-rule:evenodd;fill:#C90D69;}
	.st265{clip-path:url(#SVGID_4_);fill-rule:evenodd;clip-rule:evenodd;fill:#CA0D68;}
	.st266{clip-path:url(#SVGID_4_);fill-rule:evenodd;clip-rule:evenodd;fill:#CA0D67;}
	.st267{clip-path:url(#SVGID_4_);fill-rule:evenodd;clip-rule:evenodd;fill:#CA0D66;}
	.st268{clip-path:url(#SVGID_4_);fill-rule:evenodd;clip-rule:evenodd;fill:#CA0E65;}
	.st269{clip-path:url(#SVGID_4_);fill-rule:evenodd;clip-rule:evenodd;fill:#CB0D64;}
	.st270{clip-path:url(#SVGID_4_);fill-rule:evenodd;clip-rule:evenodd;fill:#CC0D63;}
	.st271{clip-path:url(#SVGID_4_);fill-rule:evenodd;clip-rule:evenodd;fill:#CC0E62;}
	.st272{clip-path:url(#SVGID_4_);fill-rule:evenodd;clip-rule:evenodd;fill:#CD0E61;}
	.st273{clip-path:url(#SVGID_4_);fill-rule:evenodd;clip-rule:evenodd;fill:#CD0E60;}
	.st274{clip-path:url(#SVGID_4_);fill-rule:evenodd;clip-rule:evenodd;fill:#CE0D60;}
	.st275{clip-path:url(#SVGID_4_);fill-rule:evenodd;clip-rule:evenodd;fill:#CE0D5F;}
	.st276{clip-path:url(#SVGID_4_);fill-rule:evenodd;clip-rule:evenodd;fill:#CF0D5E;}
	.st277{clip-path:url(#SVGID_4_);fill-rule:evenodd;clip-rule:evenodd;fill:#CF0D5D;}
	.st278{clip-path:url(#SVGID_4_);fill-rule:evenodd;clip-rule:evenodd;fill:#D00D5D;}
	.st279{clip-path:url(#SVGID_4_);fill-rule:evenodd;clip-rule:evenodd;fill:#D00D5B;}
	.st280{clip-path:url(#SVGID_4_);fill-rule:evenodd;clip-rule:evenodd;fill:#D10C5B;}
	.st281{clip-path:url(#SVGID_4_);fill-rule:evenodd;clip-rule:evenodd;fill:#D10C5A;}
	.st282{clip-path:url(#SVGID_4_);fill-rule:evenodd;clip-rule:evenodd;fill:#D10D59;}
	.st283{clip-path:url(#SVGID_4_);fill-rule:evenodd;clip-rule:evenodd;fill:#D20C59;}
	.st284{clip-path:url(#SVGID_4_);fill-rule:evenodd;clip-rule:evenodd;fill:#D10C58;}
	.st285{clip-path:url(#SVGID_4_);fill-rule:evenodd;clip-rule:evenodd;fill:#D20C57;}
	.st286{clip-path:url(#SVGID_4_);fill-rule:evenodd;clip-rule:evenodd;fill:#D20C56;}
	.st287{clip-path:url(#SVGID_4_);fill-rule:evenodd;clip-rule:evenodd;fill:#D30C55;}
	.st288{clip-path:url(#SVGID_4_);fill-rule:evenodd;clip-rule:evenodd;fill:#D40B54;}
	.st289{clip-path:url(#SVGID_4_);fill-rule:evenodd;clip-rule:evenodd;fill:#D40C54;}
	.st290{clip-path:url(#SVGID_4_);fill-rule:evenodd;clip-rule:evenodd;fill:#D40B52;}
	.st291{clip-path:url(#SVGID_4_);fill-rule:evenodd;clip-rule:evenodd;fill:#D40C51;}
	.st292{clip-path:url(#SVGID_4_);fill-rule:evenodd;clip-rule:evenodd;fill:#D50B51;}
	.st293{clip-path:url(#SVGID_4_);fill-rule:evenodd;clip-rule:evenodd;fill:#D50B50;}
	.st294{clip-path:url(#SVGID_4_);fill-rule:evenodd;clip-rule:evenodd;fill:#D50C4F;}
	.st295{clip-path:url(#SVGID_4_);fill-rule:evenodd;clip-rule:evenodd;fill:#D60B4E;}
	.st296{clip-path:url(#SVGID_4_);fill-rule:evenodd;clip-rule:evenodd;fill:#D70B4C;}
	.st297{clip-path:url(#SVGID_4_);fill-rule:evenodd;clip-rule:evenodd;fill:#D70B4B;}
	.st298{clip-path:url(#SVGID_4_);fill-rule:evenodd;clip-rule:evenodd;fill:#D70B49;}
	.st299{clip-path:url(#SVGID_4_);fill-rule:evenodd;clip-rule:evenodd;fill:#D80A49;}
	.st300{clip-path:url(#SVGID_4_);fill-rule:evenodd;clip-rule:evenodd;fill:#D80A48;}
	.st301{clip-path:url(#SVGID_4_);fill-rule:evenodd;clip-rule:evenodd;fill:#D90A47;}
	.st302{clip-path:url(#SVGID_4_);fill-rule:evenodd;clip-rule:evenodd;fill:#D90A46;}
	.st303{clip-path:url(#SVGID_4_);fill-rule:evenodd;clip-rule:evenodd;fill:#DA0A45;}
	.st304{clip-path:url(#SVGID_4_);fill-rule:evenodd;clip-rule:evenodd;fill:#DA0944;}
	.st305{clip-path:url(#SVGID_4_);fill-rule:evenodd;clip-rule:evenodd;fill:#DA0943;}
	.st306{clip-path:url(#SVGID_4_);fill-rule:evenodd;clip-rule:evenodd;fill:#DA0942;}
	.st307{clip-path:url(#SVGID_4_);fill-rule:evenodd;clip-rule:evenodd;fill:#DB0842;}
	.st308{clip-path:url(#SVGID_4_);fill-rule:evenodd;clip-rule:evenodd;fill:#DB0940;}
	.st309{clip-path:url(#SVGID_4_);fill-rule:evenodd;clip-rule:evenodd;fill:#DC083F;}
	.st310{clip-path:url(#SVGID_4_);fill-rule:evenodd;clip-rule:evenodd;fill:#DC083E;}
	.st311{clip-path:url(#SVGID_4_);fill-rule:evenodd;clip-rule:evenodd;fill:#DD083D;}
	.st312{clip-path:url(#SVGID_4_);fill-rule:evenodd;clip-rule:evenodd;fill:#DE073C;}
	.st313{clip-path:url(#SVGID_4_);fill-rule:evenodd;clip-rule:evenodd;fill:#DE073B;}
	.st314{clip-path:url(#SVGID_4_);fill-rule:evenodd;clip-rule:evenodd;fill:#DE073A;}
	.st315{clip-path:url(#SVGID_4_);fill-rule:evenodd;clip-rule:evenodd;fill:#DE0739;}
	.st316{clip-path:url(#SVGID_4_);fill-rule:evenodd;clip-rule:evenodd;fill:#DF0638;}
	.st317{clip-path:url(#SVGID_4_);fill-rule:evenodd;clip-rule:evenodd;fill:#DF0737;}
	.st318{clip-path:url(#SVGID_4_);fill-rule:evenodd;clip-rule:evenodd;fill:#DF0636;}
	.st319{clip-path:url(#SVGID_4_);fill-rule:evenodd;clip-rule:evenodd;fill:#DF0735;}
	.st320{clip-path:url(#SVGID_4_);fill-rule:evenodd;clip-rule:evenodd;fill:#E00634;}
	.st321{clip-path:url(#SVGID_4_);fill-rule:evenodd;clip-rule:evenodd;fill:#E00633;}
	.st322{clip-path:url(#SVGID_4_);fill-rule:evenodd;clip-rule:evenodd;fill:#E00632;}
	.st323{clip-path:url(#SVGID_4_);fill-rule:evenodd;clip-rule:evenodd;fill:#E10532;}
	.st324{clip-path:url(#SVGID_4_);fill-rule:evenodd;clip-rule:evenodd;fill:#E10630;}
	.st325{clip-path:url(#SVGID_4_);fill-rule:evenodd;clip-rule:evenodd;fill:#E2052F;}
	.st326{clip-path:url(#SVGID_4_);fill-rule:evenodd;clip-rule:evenodd;fill:#E2062E;}
	.st327{clip-path:url(#SVGID_4_);fill-rule:evenodd;clip-rule:evenodd;fill:#E2052C;}
	.st328{clip-path:url(#SVGID_4_);fill-rule:evenodd;clip-rule:evenodd;fill:#E3042C;}
	.st329{clip-path:url(#SVGID_4_);fill-rule:evenodd;clip-rule:evenodd;fill:#E3052B;}
	.st330{clip-path:url(#SVGID_4_);fill-rule:evenodd;clip-rule:evenodd;fill:#E4042A;}
	.st331{clip-path:url(#SVGID_4_);fill-rule:evenodd;clip-rule:evenodd;fill:#E40429;}
	.st332{clip-path:url(#SVGID_4_);fill-rule:evenodd;clip-rule:evenodd;fill:#E40428;}
	.st333{clip-path:url(#SVGID_4_);fill-rule:evenodd;clip-rule:evenodd;fill:#E40427;}
	.st334{clip-path:url(#SVGID_4_);fill-rule:evenodd;clip-rule:evenodd;fill:#E40426;}
	.st335{clip-path:url(#SVGID_4_);fill-rule:evenodd;clip-rule:evenodd;fill:#E40425;}
	.st336{clip-path:url(#SVGID_4_);fill-rule:evenodd;clip-rule:evenodd;fill:#E40424;}
	.st337{clip-path:url(#SVGID_4_);fill-rule:evenodd;clip-rule:evenodd;fill:#E40523;}
	.st338{clip-path:url(#SVGID_4_);fill-rule:evenodd;clip-rule:evenodd;fill:#E40521;}
	.st339{clip-path:url(#SVGID_4_);fill-rule:evenodd;clip-rule:evenodd;fill:#E40520;}
	.st340{clip-path:url(#SVGID_4_);fill-rule:evenodd;clip-rule:evenodd;fill:#E4051F;}
	.st341{clip-path:url(#SVGID_4_);fill-rule:evenodd;clip-rule:evenodd;fill:#E3051E;}
	.st342{clip-path:url(#SVGID_4_);fill-rule:evenodd;clip-rule:evenodd;fill:#E4051E;}
	.st343{clip-path:url(#SVGID_4_);fill-rule:evenodd;clip-rule:evenodd;fill:#E3051D;}
	.st344{clip-path:url(#SVGID_4_);fill-rule:evenodd;clip-rule:evenodd;fill:#E3051C;}
	.st345{clip-path:url(#SVGID_4_);fill-rule:evenodd;clip-rule:evenodd;fill:#E3051B;}
	.st346{clip-path:url(#SVGID_4_);fill-rule:evenodd;clip-rule:evenodd;fill:#E3051A;}
	.st347{clip-path:url(#SVGID_4_);fill-rule:evenodd;clip-rule:evenodd;fill:#E30519;}
	.st348{clip-path:url(#SVGID_4_);fill-rule:evenodd;clip-rule:evenodd;fill:#E30518;}
	.st349{clip-path:url(#SVGID_4_);fill-rule:evenodd;clip-rule:evenodd;fill:#E30517;}
	.st350{clip-path:url(#SVGID_4_);fill-rule:evenodd;clip-rule:evenodd;fill:#E30618;}
	.st351{clip-path:url(#SVGID_4_);fill-rule:evenodd;clip-rule:evenodd;fill:#E30717;}
	.st352{fill:#FFFFFF;}
</style>
<g
   id="shape"
   style="fill:#ffffff;fill-opacity:1">
	<g
   id="g522"
   style="fill:#ffffff;fill-opacity:1">
		<defs
   id="defs5">
			<path
   id="SVGID_1_"
   d="M67.5,7.6 M54.4,46.7L36.5,36.4V26.1V15.8L54.4,5.5l8.5,4.9l4.7,2.7l4.7,2.7l4.7,2.7l3.7-2.2l8.4,4.9v4.9     V31l-8.4,4.9L77,33.7l4.7-2.7L77,28.2L72.2,31l-4.7,2.7l4.7,2.7l4.7,2.7l3.7,2.2l13.2-7.6v-7.6v-7.6l-13.2-7.6L77,13.1l-4.7-2.7     l-4.7-2.7l-1.9-1.1l-6.6-3.8L54.4,0l-4.7,2.7l-6.6,3.8l-11.3,6.5v5.4v7.6v7.6v5.5l11.3,6.5l6.6,3.8l4.7,2.7l4.7-2.7l3.7-2.2     l-4.7-2.7L54.4,46.7z" />
		</defs>
		<clipPath
   id="SVGID_2_">
			<use
   xlink:href="#SVGID_1_"
   style="overflow:visible;"
   id="use7" />
		</clipPath>
		<path
   id="rect10"
   clip-path="url(#SVGID_2_)"
   style="clip-rule:evenodd;fill:#ffffff;fill-opacity:1;fill-rule:evenodd"
   d="M 31.800781 0 L 31.800781 0.40039062 L 31.800781 0.59960938 L 31.800781 0.80078125 L 31.800781 1 L 31.800781 1.1992188 L 31.800781 1.4003906 L 31.800781 1.5996094 L 31.800781 1.8007812 L 31.800781 2 L 31.800781 2.1992188 L 31.800781 2.4003906 L 31.800781 2.5996094 L 31.800781 2.9003906 L 31.800781 3.0996094 L 31.800781 3.3007812 L 31.800781 3.5 L 31.800781 3.6992188 L 31.800781 3.9003906 L 31.800781 4.0996094 L 31.800781 4.3007812 L 31.800781 4.5 L 31.800781 4.6992188 L 31.800781 4.9003906 L 31.800781 5.0996094 L 31.800781 5.3007812 L 31.800781 5.5 L 31.800781 5.6992188 L 31.800781 5.9003906 L 31.800781 6.0996094 L 31.800781 6.3007812 L 31.800781 6.5 L 31.800781 6.6992188 L 31.800781 6.9003906 L 31.800781 7.0996094 L 31.800781 7.3007812 L 31.800781 7.5 L 31.800781 7.6992188 L 31.800781 8 L 31.800781 8.1992188 L 31.800781 8.4003906 L 31.800781 8.5996094 L 31.800781 8.8007812 L 31.800781 9 L 31.800781 9.1992188 L 31.800781 9.4003906 L 31.800781 9.5996094 L 31.800781 9.8007812 L 31.800781 10 L 31.800781 10.199219 L 31.800781 10.400391 L 31.800781 10.599609 L 31.800781 10.800781 L 31.800781 11 L 31.800781 11.199219 L 31.800781 11.400391 L 31.800781 11.599609 L 31.800781 11.800781 L 31.800781 12 L 31.800781 12.199219 L 31.800781 12.400391 L 31.800781 12.599609 L 31.800781 12.800781 L 31.800781 13.099609 L 31.800781 13.300781 L 31.800781 13.5 L 31.800781 13.699219 L 31.800781 13.900391 L 31.800781 14.099609 L 31.800781 14.300781 L 31.800781 14.5 L 31.800781 14.699219 L 31.800781 14.900391 L 31.800781 15.099609 L 31.800781 15.300781 L 31.800781 15.5 L 31.800781 15.699219 L 31.800781 15.900391 L 31.800781 16.099609 L 31.800781 16.300781 L 31.800781 16.5 L 31.800781 16.699219 L 31.800781 16.900391 L 31.800781 17.099609 L 31.800781 17.300781 L 31.800781 17.5 L 31.800781 17.699219 L 31.800781 17.900391 L 31.800781 18.099609 L 31.800781 18.300781 L 31.800781 18.599609 L 31.800781 18.800781 L 31.800781 19 L 31.800781 19.199219 L 31.800781 19.400391 L 31.800781 19.599609 L 31.800781 19.800781 L 31.800781 20 L 31.800781 20.199219 L 31.800781 20.400391 L 31.800781 20.599609 L 31.800781 20.800781 L 31.800781 21 L 31.800781 21.199219 L 31.800781 21.400391 L 31.800781 21.599609 L 31.800781 21.800781 L 31.800781 22 L 31.800781 22.199219 L 31.800781 22.400391 L 31.800781 22.599609 L 31.800781 22.800781 L 31.800781 23 L 31.800781 23.199219 L 31.800781 23.400391 L 31.800781 23.599609 L 31.800781 23.800781 L 31.800781 24.099609 L 31.800781 24.300781 L 31.800781 24.5 L 31.800781 24.699219 L 31.800781 24.900391 L 31.800781 25.099609 L 31.800781 25.300781 L 31.800781 25.5 L 31.800781 25.699219 L 31.800781 25.900391 L 31.800781 26.099609 L 31.800781 26.300781 L 31.800781 26.5 L 31.800781 26.699219 L 31.800781 26.900391 L 31.800781 27.099609 L 31.800781 27.300781 L 31.800781 27.5 L 31.800781 27.699219 L 31.800781 27.900391 L 31.800781 28.099609 L 31.800781 28.300781 L 31.800781 28.5 L 31.800781 28.699219 L 31.800781 28.900391 L 31.800781 29.099609 L 31.800781 29.300781 L 31.800781 29.599609 L 31.800781 29.800781 L 31.800781 30 L 31.800781 30.199219 L 31.800781 30.400391 L 31.800781 30.599609 L 31.800781 30.800781 L 31.800781 31 L 31.800781 31.199219 L 31.800781 31.400391 L 31.800781 31.599609 L 31.800781 31.800781 L 31.800781 32 L 31.800781 32.199219 L 31.800781 32.400391 L 31.800781 32.599609 L 31.800781 32.800781 L 31.800781 33 L 31.800781 33.199219 L 31.800781 33.400391 L 31.800781 33.599609 L 31.800781 33.800781 L 31.800781 34 L 31.800781 34.199219 L 31.800781 34.400391 L 31.800781 34.599609 L 31.800781 34.900391 L 31.800781 35.099609 L 31.800781 35.300781 L 31.800781 35.5 L 31.800781 35.699219 L 31.800781 35.900391 L 31.800781 36.099609 L 31.800781 36.300781 L 31.800781 36.5 L 31.800781 36.699219 L 31.800781 36.900391 L 31.800781 37.099609 L 31.800781 37.300781 L 31.800781 37.5 L 31.800781 37.699219 L 31.800781 37.900391 L 31.800781 38.099609 L 31.800781 38.300781 L 31.800781 38.5 L 31.800781 38.699219 L 31.800781 38.900391 L 31.800781 39.099609 L 31.800781 39.300781 L 31.800781 39.5 L 31.800781 39.699219 L 31.800781 39.900391 L 31.800781 40.099609 L 31.800781 40.400391 L 31.800781 40.599609 L 31.800781 40.800781 L 31.800781 41 L 31.800781 41.199219 L 31.800781 41.400391 L 31.800781 41.599609 L 31.800781 41.800781 L 31.800781 42 L 31.800781 42.199219 L 31.800781 42.400391 L 31.800781 42.599609 L 31.800781 42.800781 L 31.800781 43 L 31.800781 43.199219 L 31.800781 43.400391 L 31.800781 43.599609 L 31.800781 43.800781 L 31.800781 44 L 31.800781 44.199219 L 31.800781 44.400391 L 31.800781 44.599609 L 31.800781 44.800781 L 31.800781 45 L 31.800781 45.199219 L 31.800781 45.400391 L 31.800781 45.599609 L 31.800781 45.900391 L 31.800781 46.099609 L 31.800781 46.300781 L 31.800781 46.5 L 31.800781 46.699219 L 31.800781 46.900391 L 31.800781 47.099609 L 31.800781 47.300781 L 31.800781 47.5 L 31.800781 47.699219 L 31.800781 47.900391 L 31.800781 48.099609 L 31.800781 48.300781 L 31.800781 48.5 L 31.800781 48.699219 L 31.800781 48.900391 L 31.800781 49.099609 L 31.800781 49.300781 L 31.800781 49.5 L 31.800781 49.699219 L 31.800781 49.900391 L 31.800781 50.099609 L 31.800781 50.300781 L 31.800781 50.5 L 31.800781 50.699219 L 31.800781 50.900391 L 31.800781 51.199219 L 31.800781 51.400391 L 31.800781 51.599609 L 31.800781 51.800781 L 31.800781 52 L 31.800781 52.099609 L 31.800781 52.199219 L 93.900391 52.199219 L 93.900391 52.099609 L 93.900391 51.900391 L 93.900391 51.699219 L 93.900391 51.5 L 93.900391 51.300781 L 93.900391 51.099609 L 93.900391 50.900391 L 93.900391 50.599609 L 93.900391 50.400391 L 93.900391 50.199219 L 93.900391 50 L 93.900391 49.800781 L 93.900391 49.599609 L 93.900391 49.400391 L 93.900391 49.199219 L 93.900391 49 L 93.900391 48.800781 L 93.900391 48.599609 L 93.900391 48.400391 L 93.900391 48.199219 L 93.900391 48 L 93.900391 47.800781 L 93.900391 47.599609 L 93.900391 47.400391 L 93.900391 47.199219 L 93.900391 47 L 93.900391 46.800781 L 93.900391 46.599609 L 93.900391 46.400391 L 93.900391 46.199219 L 93.900391 46 L 93.900391 45.800781 L 93.900391 45.599609 L 93.900391 45.300781 L 93.900391 45.099609 L 93.900391 44.900391 L 93.900391 44.699219 L 93.900391 44.5 L 93.900391 44.300781 L 93.900391 44.099609 L 93.900391 43.900391 L 93.900391 43.699219 L 93.900391 43.5 L 93.900391 43.300781 L 93.900391 43.099609 L 93.900391 42.900391 L 93.900391 42.699219 L 93.900391 42.5 L 93.900391 42.300781 L 93.900391 42.099609 L 93.900391 41.900391 L 93.900391 41.699219 L 93.900391 41.5 L 93.900391 41.300781 L 93.900391 41.099609 L 93.900391 40.900391 L 93.900391 40.699219 L 93.900391 40.5 L 93.900391 40.300781 L 93.900391 40.099609 L 93.900391 39.800781 L 93.900391 39.599609 L 93.900391 39.400391 L 93.900391 39.199219 L 93.900391 39 L 93.900391 38.800781 L 93.900391 38.599609 L 93.900391 38.400391 L 93.900391 38.199219 L 93.900391 38 L 93.900391 37.800781 L 93.900391 37.599609 L 93.900391 37.400391 L 93.900391 37.199219 L 93.900391 37 L 93.900391 36.800781 L 93.900391 36.599609 L 93.900391 36.400391 L 93.900391 36.199219 L 93.900391 36 L 93.900391 35.800781 L 93.900391 35.599609 L 93.900391 35.400391 L 93.900391 35.199219 L 93.900391 35 L 93.900391 34.800781 L 93.900391 34.599609 L 93.900391 34.300781 L 93.900391 34.099609 L 93.900391 33.900391 L 93.900391 33.699219 L 93.900391 33.5 L 93.900391 33.300781 L 93.900391 33.099609 L 93.900391 32.900391 L 93.900391 32.699219 L 93.900391 32.5 L 93.900391 32.300781 L 93.900391 32.099609 L 93.900391 31.900391 L 93.900391 31.699219 L 93.900391 31.5 L 93.900391 31.300781 L 93.900391 31.099609 L 93.900391 30.900391 L 93.900391 30.699219 L 93.900391 30.5 L 93.900391 30.300781 L 93.900391 30.099609 L 93.900391 29.900391 L 93.900391 29.699219 L 93.900391 29.5 L 93.900391 29.300781 L 93.900391 29 L 93.900391 28.800781 L 93.900391 28.599609 L 93.900391 28.400391 L 93.900391 28.199219 L 93.900391 28 L 93.900391 27.800781 L 93.900391 27.599609 L 93.900391 27.400391 L 93.900391 27.199219 L 93.900391 27 L 93.900391 26.800781 L 93.900391 26.599609 L 93.900391 26.400391 L 93.900391 26.199219 L 93.900391 26 L 93.900391 25.800781 L 93.900391 25.599609 L 93.900391 25.400391 L 93.900391 25.199219 L 93.900391 25 L 93.900391 24.800781 L 93.900391 24.599609 L 93.900391 24.400391 L 93.900391 24.199219 L 93.900391 24 L 93.900391 23.800781 L 93.900391 23.5 L 93.900391 23.300781 L 93.900391 23.099609 L 93.900391 22.900391 L 93.900391 22.699219 L 93.900391 22.5 L 93.900391 22.300781 L 93.900391 22.099609 L 93.900391 21.900391 L 93.900391 21.699219 L 93.900391 21.5 L 93.900391 21.300781 L 93.900391 21.099609 L 93.900391 20.900391 L 93.900391 20.699219 L 93.900391 20.5 L 93.900391 20.300781 L 93.900391 20.099609 L 93.900391 19.900391 L 93.900391 19.699219 L 93.900391 19.5 L 93.900391 19.300781 L 93.900391 19.099609 L 93.900391 18.900391 L 93.900391 18.699219 L 93.900391 18.5 L 93.900391 18.300781 L 93.900391 18 L 93.900391 17.800781 L 93.900391 17.599609 L 93.900391 17.400391 L 93.900391 17.199219 L 93.900391 17 L 93.900391 16.800781 L 93.900391 16.599609 L 93.900391 16.400391 L 93.900391 16.199219 L 93.900391 16 L 93.900391 15.800781 L 93.900391 15.599609 L 93.900391 15.400391 L 93.900391 15.199219 L 93.900391 15 L 93.900391 14.800781 L 93.900391 14.599609 L 93.900391 14.400391 L 93.900391 14.199219 L 93.900391 14 L 93.900391 13.800781 L 93.900391 13.599609 L 93.900391 13.400391 L 93.900391 13.199219 L 93.900391 13 L 93.900391 12.800781 L 93.900391 12.5 L 93.900391 12.300781 L 93.900391 12.099609 L 93.900391 11.900391 L 93.900391 11.699219 L 93.900391 11.5 L 93.900391 11.300781 L 93.900391 11.099609 L 93.900391 10.900391 L 93.900391 10.699219 L 93.900391 10.5 L 93.900391 10.300781 L 93.900391 10.099609 L 93.900391 9.9003906 L 93.900391 9.6992188 L 93.900391 9.5 L 93.900391 9.3007812 L 93.900391 9.0996094 L 93.900391 8.9003906 L 93.900391 8.6992188 L 93.900391 8.5 L 93.900391 8.3007812 L 93.900391 8.0996094 L 93.900391 7.9003906 L 93.900391 7.6992188 L 93.900391 7.5996094 L 93.900391 7.1992188 L 93.900391 7 L 93.900391 6.8007812 L 93.900391 6.5996094 L 93.900391 6.4003906 L 93.900391 6.1992188 L 93.900391 6 L 93.900391 5.8007812 L 93.900391 5.5996094 L 93.900391 5.4003906 L 93.900391 5.1992188 L 93.900391 5 L 93.900391 4.8007812 L 93.900391 4.5996094 L 93.900391 4.4003906 L 93.900391 4.1992188 L 93.900391 4 L 93.900391 3.8007812 L 93.900391 3.5996094 L 93.900391 3.4003906 L 93.900391 3.1992188 L 93.900391 3 L 93.900391 2.8007812 L 93.900391 2.5996094 L 93.900391 2.3007812 L 93.900391 2.0996094 L 93.900391 1.9003906 L 93.900391 1.6992188 L 93.900391 1.5 L 93.900391 1.3007812 L 93.900391 1.0996094 L 93.900391 0.90039062 L 93.900391 0.69921875 L 93.900391 0.5 L 93.900391 0.30078125 L 93.900391 0 L 31.800781 0 z " />
		
		
		
		
		
		
		
		
		
		
		
		
		
		
		
		
		
		
		
		
		
		
		
		
		
		
		
		
		
		
		
		
		
		
		
		
		
		
		
		
		
		
		
		
		
		
		
		
		
		
		
		
		
		
		
		
		
		
		
		
		
		
		
		
		
		
		
		
		
		
		
		
		
		
		
		
		
		
		
		
		
		
		
		
		
		
		
		
		
		
		
		
		
		
		
		
		
		
		
		
		
		
		
		
		
		
		
		
		
		
		
		
		
		
		
		
		
		
		
		
		
		
		
		
		
		
		
		
		
		
		
		
		
		
		
		
		
		
		
		
		
		
		
		
		
		
		
		
		
		
		
		
		
		
		
		
		
		
		
		
		
		
		
		
		
		
		
		
		
		
		
		
		
		
		
		
		
		
		
		
		
		
		
		
		
		
		
		
		
		
		
		
		
		
		
		
		
		
		
		
		
		
		
		
		
		
		
		
		
		
		
		
		
		
		
		
		
		
		
		
		
		
		
		
		
		
		
		
		
		
		
		
		
		
		
		
		
		
		
		
		
		
		
		
		
		
		
		
		
		
		
		
		
		
		
	</g>
	<g
   id="g1042"
   style="fill:#ffffff;fill-opacity:1">
		<defs
   id="defs525">
			<path
   id="SVGID_3_"
   d="M67.5,44.6 M54.4,35.8L45.9,31v-4.9v-4.9l8.4-4.9l3.7,2.2l-4.7,2.7l4.7,2.7l2.4-1.4l2.4-1.4l4.7-2.7     l-4.7-2.7l-4.7-2.7l-3.7-2.2l-13.2,7.6v7.6v7.6l13.2,7.6l3.7-2.2l4.7,2.7l4.7,2.7l1.9,1.1l6.6,3.8l4.7,2.7l4.7-2.7l6.6-3.8     l11.3-6.5v-5.5v-7.6v-7.6v-5.4L92,6.5l-6.6-3.8L80.7,0L76,2.7l-3.7,2.2L77,7.6l3.7-2.2l17.9,10.3v10.3v10.3L80.7,46.7l-8.5-4.9     l-4.7-2.7l-4.7-2.7l-4.7-2.7L54.4,35.8z" />
		</defs>
		<clipPath
   id="SVGID_4_">
			<use
   xlink:href="#SVGID_3_"
   style="overflow:visible;"
   id="use527" />
		</clipPath>
		<path
   id="rect530"
   clip-path="url(#SVGID_4_)"
   style="clip-rule:evenodd;fill:#ffffff;fill-opacity:1;fill-rule:evenodd"
   d="M 41.199219 0 L 41.199219 0.40039062 L 41.199219 0.59960938 L 41.199219 0.80078125 L 41.199219 1 L 41.199219 1.1992188 L 41.199219 1.4003906 L 41.199219 1.5996094 L 41.199219 1.8007812 L 41.199219 2 L 41.199219 2.1992188 L 41.199219 2.4003906 L 41.199219 2.6992188 L 41.199219 2.9003906 L 41.199219 3.0996094 L 41.199219 3.3007812 L 41.199219 3.5 L 41.199219 3.6992188 L 41.199219 3.9003906 L 41.199219 4.0996094 L 41.199219 4.3007812 L 41.199219 4.5 L 41.199219 4.6992188 L 41.199219 4.9003906 L 41.199219 5.0996094 L 41.199219 5.3007812 L 41.199219 5.5 L 41.199219 5.6992188 L 41.199219 5.9003906 L 41.199219 6.0996094 L 41.199219 6.3007812 L 41.199219 6.5 L 41.199219 6.6992188 L 41.199219 6.9003906 L 41.199219 7.0996094 L 41.199219 7.3007812 L 41.199219 7.5 L 41.199219 7.6992188 L 41.199219 8 L 41.199219 8.1992188 L 41.199219 8.4003906 L 41.199219 8.5996094 L 41.199219 8.8007812 L 41.199219 9 L 41.199219 9.1992188 L 41.199219 9.4003906 L 41.199219 9.5996094 L 41.199219 9.8007812 L 41.199219 10 L 41.199219 10.199219 L 41.199219 10.400391 L 41.199219 10.599609 L 41.199219 10.800781 L 41.199219 11 L 41.199219 11.199219 L 41.199219 11.400391 L 41.199219 11.599609 L 41.199219 11.800781 L 41.199219 12 L 41.199219 12.199219 L 41.199219 12.400391 L 41.199219 12.599609 L 41.199219 12.800781 L 41.199219 13.099609 L 41.199219 13.300781 L 41.199219 13.5 L 41.199219 13.699219 L 41.199219 13.900391 L 41.199219 14.099609 L 41.199219 14.300781 L 41.199219 14.5 L 41.199219 14.699219 L 41.199219 14.900391 L 41.199219 15.099609 L 41.199219 15.300781 L 41.199219 15.5 L 41.199219 15.699219 L 41.199219 15.900391 L 41.199219 16.099609 L 41.199219 16.300781 L 41.199219 16.5 L 41.199219 16.699219 L 41.199219 16.900391 L 41.199219 17.099609 L 41.199219 17.300781 L 41.199219 17.5 L 41.199219 17.699219 L 41.199219 17.900391 L 41.199219 18.099609 L 41.199219 18.300781 L 41.199219 18.599609 L 41.199219 18.800781 L 41.199219 19 L 41.199219 19.199219 L 41.199219 19.400391 L 41.199219 19.599609 L 41.199219 19.800781 L 41.199219 20 L 41.199219 20.199219 L 41.199219 20.400391 L 41.199219 20.599609 L 41.199219 20.800781 L 41.199219 21 L 41.199219 21.199219 L 41.199219 21.400391 L 41.199219 21.599609 L 41.199219 21.800781 L 41.199219 22 L 41.199219 22.199219 L 41.199219 22.400391 L 41.199219 22.599609 L 41.199219 22.800781 L 41.199219 23 L 41.199219 23.199219 L 41.199219 23.400391 L 41.199219 23.599609 L 41.199219 23.800781 L 41.199219 24.099609 L 41.199219 24.300781 L 41.199219 24.5 L 41.199219 24.699219 L 41.199219 24.900391 L 41.199219 25.099609 L 41.199219 25.300781 L 41.199219 25.5 L 41.199219 25.699219 L 41.199219 25.900391 L 41.199219 26.099609 L 41.199219 26.300781 L 41.199219 26.5 L 41.199219 26.699219 L 41.199219 26.900391 L 41.199219 27.099609 L 41.199219 27.300781 L 41.199219 27.5 L 41.199219 27.699219 L 41.199219 27.900391 L 41.199219 28.099609 L 41.199219 28.300781 L 41.199219 28.5 L 41.199219 28.699219 L 41.199219 28.900391 L 41.199219 29.099609 L 41.199219 29.300781 L 41.199219 29.599609 L 41.199219 29.800781 L 41.199219 30 L 41.199219 30.199219 L 41.199219 30.400391 L 41.199219 30.599609 L 41.199219 30.800781 L 41.199219 31 L 41.199219 31.199219 L 41.199219 31.400391 L 41.199219 31.599609 L 41.199219 31.800781 L 41.199219 32 L 41.199219 32.199219 L 41.199219 32.400391 L 41.199219 32.599609 L 41.199219 32.800781 L 41.199219 33 L 41.199219 33.199219 L 41.199219 33.400391 L 41.199219 33.599609 L 41.199219 33.800781 L 41.199219 34 L 41.199219 34.199219 L 41.199219 34.400391 L 41.199219 34.599609 L 41.199219 34.900391 L 41.199219 35.099609 L 41.199219 35.300781 L 41.199219 35.5 L 41.199219 35.699219 L 41.199219 35.900391 L 41.199219 36.099609 L 41.199219 36.300781 L 41.199219 36.5 L 41.199219 36.699219 L 41.199219 36.900391 L 41.199219 37.099609 L 41.199219 37.300781 L 41.199219 37.5 L 41.199219 37.699219 L 41.199219 37.900391 L 41.199219 38.099609 L 41.199219 38.300781 L 41.199219 38.5 L 41.199219 38.699219 L 41.199219 38.900391 L 41.199219 39.099609 L 41.199219 39.300781 L 41.199219 39.5 L 41.199219 39.699219 L 41.199219 39.900391 L 41.199219 40.099609 L 41.199219 40.400391 L 41.199219 40.599609 L 41.199219 40.800781 L 41.199219 41 L 41.199219 41.199219 L 41.199219 41.400391 L 41.199219 41.599609 L 41.199219 41.800781 L 41.199219 42 L 41.199219 42.199219 L 41.199219 42.400391 L 41.199219 42.599609 L 41.199219 42.800781 L 41.199219 43 L 41.199219 43.199219 L 41.199219 43.400391 L 41.199219 43.599609 L 41.199219 43.800781 L 41.199219 44 L 41.199219 44.199219 L 41.199219 44.400391 L 41.199219 44.599609 L 41.199219 44.800781 L 41.199219 45 L 41.199219 45.199219 L 41.199219 45.400391 L 41.199219 45.599609 L 41.199219 45.900391 L 41.199219 46.099609 L 41.199219 46.300781 L 41.199219 46.5 L 41.199219 46.699219 L 41.199219 46.900391 L 41.199219 47.099609 L 41.199219 47.300781 L 41.199219 47.5 L 41.199219 47.699219 L 41.199219 47.900391 L 41.199219 48.099609 L 41.199219 48.300781 L 41.199219 48.5 L 41.199219 48.699219 L 41.199219 48.900391 L 41.199219 49.099609 L 41.199219 49.300781 L 41.199219 49.5 L 41.199219 49.699219 L 41.199219 49.900391 L 41.199219 50.099609 L 41.199219 50.300781 L 41.199219 50.5 L 41.199219 50.699219 L 41.199219 51 L 41.199219 51.199219 L 41.199219 51.400391 L 41.199219 51.599609 L 41.199219 51.800781 L 41.199219 52 L 41.199219 52.099609 L 41.199219 52.199219 L 343.5625 52.199219 L 343.5625 52.099609 L 343.5625 51.900391 L 343.5625 51.699219 L 343.5625 51.5 L 343.5625 51.300781 L 343.5625 51.099609 L 343.5625 50.900391 L 103.30078 50.900391 L 103.30078 50.699219 L 343.5625 50.699219 L 343.5625 50.400391 L 343.5625 50.199219 L 343.5625 50 L 343.5625 49.800781 L 343.5625 49.599609 L 343.5625 49.400391 L 343.5625 49.199219 L 343.5625 49 L 343.5625 48.800781 L 343.5625 48.599609 L 343.5625 48.400391 L 343.5625 48.199219 L 343.5625 48 L 343.5625 47.800781 L 343.5625 47.599609 L 343.5625 47.400391 L 343.5625 47.199219 L 343.5625 47 L 343.5625 46.800781 L 343.5625 46.599609 L 343.5625 46.400391 L 343.5625 46.199219 L 343.5625 46 L 343.5625 45.800781 L 343.5625 45.599609 L 343.5625 45.300781 L 343.5625 45.099609 L 343.5625 44.900391 L 343.5625 44.699219 L 343.5625 44.5 L 343.5625 44.300781 L 343.5625 44.099609 L 343.5625 43.900391 L 343.5625 43.699219 L 343.5625 43.5 L 343.5625 43.300781 L 343.5625 43.099609 L 343.5625 42.900391 L 343.5625 42.699219 L 343.5625 42.5 L 343.5625 42.300781 L 103.30078 42.300781 L 103.30078 42.199219 L 343.5625 42.199219 L 343.5625 41.900391 L 343.5625 41.699219 L 343.5625 41.5 L 343.5625 41.300781 L 343.5625 41.099609 L 343.5625 40.900391 L 343.5625 40.699219 L 343.5625 40.5 L 343.5625 40.300781 L 103.30078 40.300781 L 103.30078 40.099609 L 343.5625 40.099609 L 343.5625 39.800781 L 343.5625 39.599609 L 343.5625 39.400391 L 343.5625 39.199219 L 343.5625 39 L 343.5625 38.800781 L 103.30078 38.800781 L 103.30078 38.699219 L 343.5625 38.699219 L 343.5625 38.400391 L 343.5625 38.199219 L 343.5625 38 L 343.5625 37.800781 L 343.5625 37.599609 L 343.5625 37.400391 L 343.5625 37.199219 L 343.5625 37 L 343.5625 36.800781 L 103.30078 36.800781 L 103.30078 36.699219 L 343.5625 36.699219 L 343.5625 36.400391 L 343.5625 36.199219 L 343.5625 36 L 343.5625 35.800781 L 343.5625 35.599609 L 343.5625 35.400391 L 103.30078 35.400391 L 103.30078 35.300781 L 343.5625 35.300781 L 343.5625 35 L 343.5625 34.800781 L 343.5625 34.599609 L 343.5625 34.300781 L 343.5625 34.099609 L 343.5625 33.900391 L 343.5625 33.699219 L 343.5625 33.5 L 343.5625 33.300781 L 103.30078 33.300781 L 103.30078 33.199219 L 343.5625 33.199219 L 343.5625 32.900391 L 343.5625 32.699219 L 343.5625 32.5 L 343.5625 32.300781 L 343.5625 32.099609 L 343.5625 31.900391 L 103.30078 31.900391 L 103.30078 31.800781 L 343.5625 31.800781 L 343.5625 31.5 L 343.5625 31.300781 L 343.5625 31.099609 L 343.5625 30.900391 L 343.5625 30.699219 L 343.5625 30.5 L 343.5625 30.300781 L 343.5625 30.099609 L 343.5625 29.900391 L 103.30078 29.900391 L 103.30078 29.800781 L 343.5625 29.800781 L 343.5625 29.5 L 343.5625 29.300781 L 343.5625 29 L 343.5625 28.800781 L 343.5625 28.599609 L 343.5625 28.400391 L 103.30078 28.400391 L 103.30078 28.300781 L 343.5625 28.300781 L 343.5625 28 L 343.5625 27.800781 L 343.5625 27.599609 L 343.5625 27.400391 L 343.5625 27.199219 L 343.5625 27 L 343.5625 26.800781 L 343.5625 26.599609 L 343.5625 26.400391 L 103.30078 26.400391 L 103.30078 26.300781 L 343.5625 26.300781 L 343.5625 26 L 343.5625 25.800781 L 343.5625 25.599609 L 343.5625 25.400391 L 343.5625 25.199219 L 343.5625 25 L 103.30078 25 L 103.30078 24.900391 L 343.5625 24.900391 L 343.5625 24.599609 L 343.5625 24.400391 L 343.5625 24.199219 L 343.5625 24 L 343.5625 23.800781 L 343.5625 23.5 L 343.5625 23.300781 L 343.5625 23.099609 L 343.5625 22.900391 L 343.5625 22.699219 L 343.5625 22.5 L 343.5625 22.300781 L 343.5625 22.099609 L 343.5625 21.900391 L 343.5625 21.699219 L 343.5625 21.5 L 343.5625 21.300781 L 343.5625 21.099609 L 343.5625 20.900391 L 343.5625 20.699219 L 343.5625 20.5 L 343.5625 20.300781 L 343.5625 20.099609 L 343.5625 19.900391 L 343.5625 19.699219 L 343.5625 19.5 L 343.5625 19.300781 L 343.5625 19.099609 L 343.5625 18.900391 L 343.5625 18.699219 L 343.5625 18.5 L 343.5625 18.300781 L 343.5625 18 L 343.5625 17.800781 L 103.30078 17.800781 L 103.30078 17.699219 L 343.5625 17.699219 L 343.5625 17.400391 L 343.5625 17.199219 L 343.5625 17 L 343.5625 16.800781 L 343.5625 16.599609 L 343.5625 16.400391 L 103.30078 16.400391 L 103.30078 16.300781 L 343.5625 16.300781 L 343.5625 16 L 343.5625 15.800781 L 343.5625 15.599609 L 343.5625 15.400391 L 343.5625 15.199219 L 343.5625 15 L 343.5625 14.800781 L 343.5625 14.599609 L 343.5625 14.400391 L 103.30078 14.400391 L 103.30078 14.300781 L 343.5625 14.300781 L 343.5625 14 L 343.5625 13.800781 L 343.5625 13.599609 L 343.5625 13.400391 L 343.5625 13.199219 L 343.5625 13 L 103.30078 13 L 103.30078 12.800781 L 343.5625 12.800781 L 343.5625 12.5 L 343.5625 12.300781 L 343.5625 12.099609 L 343.5625 11.900391 L 343.5625 11.699219 L 343.5625 11.5 L 343.5625 11.300781 L 343.5625 11.099609 L 343.5625 10.900391 L 103.30078 10.900391 L 103.30078 10.800781 L 343.5625 10.800781 L 343.5625 10.5 L 343.5625 10.300781 L 343.5625 10.099609 L 343.5625 9.9003906 L 343.5625 9.6992188 L 343.5625 9.5 L 103.30078 9.5 L 103.30078 9.4003906 L 343.5625 9.4003906 L 343.5625 9.0996094 L 343.5625 8.9003906 L 343.5625 8.6992188 L 343.5625 8.5 L 343.5625 8.3007812 L 343.5625 8.0996094 L 343.5625 7.9003906 L 343.5625 7.6992188 L 343.5625 7.4003906 L 103.30078 7.4003906 L 103.30078 7.3007812 L 343.5625 7.3007812 L 343.5625 7 L 343.5625 6.8007812 L 343.5625 6.5996094 L 343.5625 6.4003906 L 343.5625 6.1992188 L 343.5625 6 L 103.30078 6 L 103.30078 5.9003906 L 343.5625 5.9003906 L 343.5625 5.5996094 L 343.5625 5.4003906 L 343.5625 5.1992188 L 343.5625 5 L 343.5625 4.8007812 L 343.5625 4.5996094 L 343.5625 4.4003906 L 343.5625 4.1992188 L 343.5625 4 L 103.30078 4 L 103.30078 3.9003906 L 343.5625 3.9003906 L 343.5625 3.5996094 L 343.5625 3.4003906 L 343.5625 3.1992188 L 343.5625 3 L 343.5625 2.8007812 L 343.5625 2.5996094 L 103.30078 2.5996094 L 103.30078 2.4003906 L 343.5625 2.4003906 L 343.5625 2.0996094 L 343.5625 1.9003906 L 343.5625 1.6992188 L 343.5625 1.5 L 343.5625 1.3007812 L 343.5625 1.0996094 L 343.5625 0.90039062 L 343.5625 0.69921875 L 343.5625 0.5 L 103.30078 0.5 L 103.30078 0.40039062 L 343.5625 0.40039062 L 343.5625 0 L 41.199219 0 z " />
		
		
		
		
		
		
		
		
		
		
		
		
		
		
		
		
		
		
		
		
		
		
		
		
		
		
		
		
		
		
		
		
		
		
		
		
		
		
		
		
		
		
		
		
		
		
		
		
		
		
		
		
		
		
		
		
		
		
		
		
		
		
		
		
		
		
		
		
		
		
		
		
		
		
		
		
		
		
		
		
		
		
		
		
		
		
		
		
		
		
		
		
		
		
		
		
		
		
		
		
		
		
		
		
		
		
		
		
		
		
		
		
		
		
		
		
		
		
		
		
		
		
		
		
		
		
		
		
		
		
		
		
		
		
		
		
		
		
		
		
		
		
		
		
		
		
		
		
		
		
		
		
		
		
		
		
		
		
		
		
		
		
		
		
		
		
		
		
		
		
		
		
		
		
		
		
		
		
		
		
		
		
		
		
		
		
		
		
		
		
		
		
		
		
		
		
		
		
		
		
		
		
		
		
		
		
		
		
		
		
		
		
		
		
		
		
		
		
		
		
		
		
		
		
		
		
		
		
		
		
		
		
		
		
		
		
		
		
		
		
		
		
		
		
		
		
		
		
		
		
		
		
		
		
		
	</g>
</g>
<g
   id="name"
   style="fill:#ffffff;fill-opacity:1">
	<polygon
   class="st352"
   points="12.7,64.8 0,64.8 0,82.4 2,82.4 2,74.8 11.5,74.8 11.5,72.9 2,72.9 2,66.6 12.7,66.6  "
   id="polygon1045"
   style="fill:#ffffff;fill-opacity:1" />
	<path
   class="st352"
   d="M30.9,64.8h-2v10.2c0,1.9-0.5,3.4-1.4,4.4c-1,1-2.3,1.5-3.9,1.5c-1.7,0-3-0.5-4-1.5c-0.9-1-1.4-2.5-1.4-4.4   V64.8h-2v10.2c0,1.2,0.2,2.3,0.5,3.3c0.4,1,0.8,1.7,1.5,2.4c0.6,0.6,1.4,1.1,2.3,1.5c0.9,0.3,1.9,0.5,3,0.5c1.1,0,2.1-0.2,3-0.5   c0.9-0.3,1.7-0.8,2.3-1.5c0.7-0.7,1.1-1.5,1.5-2.4s0.5-2.1,0.5-3.4V64.8z"
   id="path1047"
   style="fill:#ffffff;fill-opacity:1" />
	<path
   class="st352"
   d="M37.1,69.2c0-0.4,0.1-0.8,0.3-1.1c0.2-0.4,0.4-0.7,0.8-0.9c0.3-0.3,0.7-0.5,1.2-0.6c0.5-0.2,1-0.2,1.5-0.2   c0.9,0,1.8,0.2,2.6,0.5c0.8,0.3,1.6,0.8,2.5,1.4l1.2-1.5c-0.9-0.7-1.9-1.2-2.8-1.6c-1-0.4-2.1-0.5-3.4-0.5c-0.8,0-1.6,0.1-2.3,0.4   c-0.7,0.2-1.3,0.6-1.8,1c-0.5,0.4-0.9,0.9-1.2,1.5c-0.3,0.6-0.4,1.2-0.4,2c0,0.7,0.1,1.4,0.4,1.9c0.2,0.5,0.6,1,1.1,1.4   c0.5,0.4,1.1,0.7,1.9,1c0.8,0.3,1.6,0.5,2.6,0.8c0.9,0.2,1.7,0.4,2.3,0.6c0.6,0.2,1.1,0.5,1.4,0.7c0.3,0.3,0.6,0.6,0.7,0.9   c0.1,0.3,0.2,0.7,0.2,1.1c0,0.9-0.4,1.6-1.1,2.2c-0.7,0.6-1.7,0.8-2.8,0.8c-1.2,0-2.3-0.2-3.2-0.6c-0.9-0.4-1.9-1-2.8-1.9l-1.2,1.5   c1.1,1,2.2,1.7,3.3,2.1c1.2,0.5,2.5,0.7,3.9,0.7c0.9,0,1.7-0.1,2.4-0.4s1.4-0.6,1.9-1c0.5-0.4,0.9-1,1.2-1.6   c0.3-0.6,0.4-1.3,0.4-2.1c0-1.4-0.5-2.4-1.4-3.2c-0.9-0.8-2.4-1.4-4.3-1.8c-1-0.2-1.8-0.4-2.4-0.6c-0.6-0.2-1.1-0.5-1.5-0.8   c-0.4-0.3-0.6-0.6-0.7-0.9C37.2,70,37.1,69.6,37.1,69.2L37.1,69.2z"
   id="path1049"
   style="fill:#ffffff;fill-opacity:1" />
	<rect
   x="51.9"
   y="64.8"
   class="st352"
   width="2"
   height="17.6"
   id="rect1051"
   style="fill:#ffffff;fill-opacity:1" />
	<path
   class="st352"
   d="M76.9,73.6c0-1.2-0.2-2.4-0.7-3.5c-0.4-1.1-1-2.1-1.8-2.9c-0.8-0.8-1.7-1.5-2.8-2c-1.1-0.5-2.3-0.7-3.7-0.7   c-1.3,0-2.6,0.3-3.7,0.7c-1.1,0.5-2.1,1.2-2.8,2c-0.8,0.8-1.4,1.8-1.8,2.9c-0.4,1.1-0.7,2.3-0.7,3.5c0,1.2,0.2,2.4,0.6,3.5   c0.4,1.1,1,2.1,1.8,2.9c0.8,0.8,1.7,1.5,2.8,2c1.1,0.5,2.3,0.7,3.7,0.7s2.6-0.2,3.7-0.7c1.1-0.5,2.1-1.2,2.8-2   c0.8-0.8,1.4-1.8,1.9-2.9C76.6,76,76.9,74.8,76.9,73.6L76.9,73.6z M74.8,73.6c0,1-0.2,2-0.5,2.8c-0.3,0.9-0.8,1.6-1.4,2.3   c-0.6,0.7-1.3,1.2-2.2,1.5c-0.8,0.4-1.8,0.6-2.8,0.6c-1,0-1.9-0.2-2.8-0.6c-0.9-0.4-1.6-0.9-2.2-1.6c-0.6-0.7-1.1-1.4-1.4-2.3   c-0.4-0.9-0.5-1.8-0.5-2.8c0-1,0.2-2,0.5-2.8c0.3-0.9,0.8-1.6,1.4-2.3c0.6-0.7,1.3-1.2,2.2-1.5c0.8-0.4,1.8-0.6,2.8-0.6   s1.9,0.2,2.8,0.6c0.9,0.4,1.6,0.9,2.2,1.5c0.6,0.7,1.1,1.4,1.4,2.3C74.6,71.7,74.8,72.6,74.8,73.6L74.8,73.6z"
   id="path1053"
   style="fill:#ffffff;fill-opacity:1" />
	<polygon
   class="st352"
   points="94,78.9 82.9,64.8 81,64.8 81,82.4 83,82.4 83,68 94.4,82.4 95.9,82.4 95.9,64.8 94,64.8  "
   id="polygon1055"
   style="fill:#ffffff;fill-opacity:1" />
	<path
   class="st352"
   d="M100.7,82.4h6.6c5.5,0,9.4-3.9,9.4-8.8v-0.1c0-5-3.8-8.8-9.4-8.8h-6.6V82.4z M107.3,67.6   c3.7,0,6.1,2.5,6.1,6v0.1c0,3.4-2.4,5.9-6.1,5.9h-3.5v-12H107.3z"
   id="path1057"
   style="fill:#ffffff;fill-opacity:1" />
	<path
   class="st352"
   d="M120.4,82.4h8.2c3.9,0,6.5-1.7,6.5-4.8v-0.1c0-2.4-1.4-3.6-3.5-4.3c1.3-0.7,2.5-1.8,2.5-3.9v-0.1   c0-1.2-0.4-2.1-1.2-2.9c-1-1-2.6-1.6-4.6-1.6h-7.9V82.4z M131,69.8c0,1.6-1.3,2.4-3.3,2.4h-4.2v-4.7h4.5   C129.9,67.6,131,68.4,131,69.8L131,69.8z M132,77.2L132,77.2c0,1.6-1.3,2.5-3.4,2.5h-5.1v-4.8h4.9C130.8,74.9,132,75.7,132,77.2   L132,77.2z"
   id="path1059"
   style="fill:#ffffff;fill-opacity:1" />
</g>
</svg>
